<mxfile host="app.diagrams.net" agent="Mozilla/5.0 (Windows NT 10.0; Win64; x64) AppleWebKit/537.36 (KHTML, like Gecko) Chrome/131.0.0.0 Safari/537.36" version="26.0.7">
  <diagram name="第 1 页" id="ZGbwv7j7xc2W8dNVFgoX">
    <mxGraphModel dx="5359" dy="1620" grid="1" gridSize="10" guides="1" tooltips="1" connect="1" arrows="1" fold="1" page="1" pageScale="1" pageWidth="827" pageHeight="1169" math="0" shadow="0">
      <root>
        <mxCell id="0" />
        <mxCell id="1" parent="0" />
        <mxCell id="-MWsqH_BpCoIPi6ZVujd-123" value="具体目标" style="whiteSpace=wrap;strokeWidth=2;" vertex="1" parent="1">
          <mxGeometry x="910" y="20" width="2680" height="512" as="geometry" />
        </mxCell>
        <mxCell id="-MWsqH_BpCoIPi6ZVujd-124" value="关键科学问题" style="whiteSpace=wrap;strokeWidth=2;" vertex="1" parent="1">
          <mxGeometry x="-180" y="1275" width="2578" height="128" as="geometry" />
        </mxCell>
        <mxCell id="-MWsqH_BpCoIPi6ZVujd-125" value="研究内容" style="whiteSpace=wrap;strokeWidth=2;" vertex="1" parent="1">
          <mxGeometry x="2890" y="1530" width="1298" height="409" as="geometry" />
        </mxCell>
        <mxCell id="-MWsqH_BpCoIPi6ZVujd-126" value="总体目标" style="whiteSpace=wrap;strokeWidth=2;" vertex="1" parent="1">
          <mxGeometry x="145" y="582" width="3662" height="128" as="geometry" />
        </mxCell>
        <mxCell id="-MWsqH_BpCoIPi6ZVujd-127" value="下视光学制导景象高精度配准与准确度分析" style="whiteSpace=wrap;strokeWidth=2;" vertex="1" parent="1">
          <mxGeometry x="985" y="607" width="260" height="78" as="geometry" />
        </mxCell>
        <mxCell id="-MWsqH_BpCoIPi6ZVujd-128" value="下视光学制导景象隐式神经表征及渲染效果分析" style="whiteSpace=wrap;strokeWidth=2;" vertex="1" parent="1">
          <mxGeometry x="2685" y="586" width="260" height="78" as="geometry" />
        </mxCell>
        <mxCell id="-MWsqH_BpCoIPi6ZVujd-129" value="多用户多视角交互式投影" style="whiteSpace=wrap;strokeWidth=2;" vertex="1" parent="1">
          <mxGeometry x="3224" y="619" width="236" height="54" as="geometry" />
        </mxCell>
        <mxCell id="-MWsqH_BpCoIPi6ZVujd-130" value="点云数据采集与预处理" style="whiteSpace=wrap;strokeWidth=2;" vertex="1" parent="1">
          <mxGeometry x="3120" y="1567" width="220" height="54" as="geometry" />
        </mxCell>
        <mxCell id="-MWsqH_BpCoIPi6ZVujd-131" value="基于特征的点云配准方法研究" style="whiteSpace=wrap;strokeWidth=2;" vertex="1" parent="1">
          <mxGeometry x="3028" y="1708" width="260" height="78" as="geometry" />
        </mxCell>
        <mxCell id="-MWsqH_BpCoIPi6ZVujd-132" value="点云配准准确度分析与评估指标研究" style="whiteSpace=wrap;strokeWidth=2;" vertex="1" parent="1">
          <mxGeometry x="2945" y="1836" width="260" height="78" as="geometry" />
        </mxCell>
        <mxCell id="-MWsqH_BpCoIPi6ZVujd-133" value="大尺度户外场景的多分辨率NeRF表征方法研究" style="whiteSpace=wrap;strokeWidth=2;" vertex="1" parent="1">
          <mxGeometry x="3513" y="1555" width="260" height="78" as="geometry" />
        </mxCell>
        <mxCell id="-MWsqH_BpCoIPi6ZVujd-134" value="基于NeRF隐式表征的下视景象快速匹配方法研究" style="whiteSpace=wrap;strokeWidth=2;" vertex="1" parent="1">
          <mxGeometry x="3430" y="1708" width="260" height="78" as="geometry" />
        </mxCell>
        <mxCell id="-MWsqH_BpCoIPi6ZVujd-135" value="渲染效果分析与评价指标体系建立" style="whiteSpace=wrap;strokeWidth=2;" vertex="1" parent="1">
          <mxGeometry x="3348" y="1836" width="260" height="78" as="geometry" />
        </mxCell>
        <mxCell id="-MWsqH_BpCoIPi6ZVujd-136" value="多用户视角追踪及分析" style="whiteSpace=wrap;strokeWidth=2;" vertex="1" parent="1">
          <mxGeometry x="3929" y="1567" width="220" height="54" as="geometry" />
        </mxCell>
        <mxCell id="-MWsqH_BpCoIPi6ZVujd-137" value="多投影机校正与图像补偿" style="whiteSpace=wrap;strokeWidth=2;" vertex="1" parent="1">
          <mxGeometry x="3849" y="1720" width="236" height="54" as="geometry" />
        </mxCell>
        <mxCell id="-MWsqH_BpCoIPi6ZVujd-138" value="多视角内容生成与渲染" style="whiteSpace=wrap;strokeWidth=2;" vertex="1" parent="1">
          <mxGeometry x="3780" y="1848" width="220" height="54" as="geometry" />
        </mxCell>
        <mxCell id="-MWsqH_BpCoIPi6ZVujd-139" value="复杂下视场景几何特征提取与三维重建" style="whiteSpace=wrap;strokeWidth=2;" vertex="1" parent="1">
          <mxGeometry x="-145" y="1300" width="260" height="78" as="geometry" />
        </mxCell>
        <mxCell id="-MWsqH_BpCoIPi6ZVujd-140" value="线面特征的参数化表示和相似性度量" style="whiteSpace=wrap;strokeWidth=2;" vertex="1" parent="1">
          <mxGeometry x="165" y="1300" width="260" height="78" as="geometry" />
        </mxCell>
        <mxCell id="-MWsqH_BpCoIPi6ZVujd-141" value="多特征加权融合与联合优化求解" style="whiteSpace=wrap;strokeWidth=2;" vertex="1" parent="1">
          <mxGeometry x="475" y="1300" width="260" height="78" as="geometry" />
        </mxCell>
        <mxCell id="-MWsqH_BpCoIPi6ZVujd-142" value="不同制导段景象配准精度差异的内在机理" style="whiteSpace=wrap;strokeWidth=2;" vertex="1" parent="1">
          <mxGeometry x="785" y="1300" width="260" height="78" as="geometry" />
        </mxCell>
        <mxCell id="-MWsqH_BpCoIPi6ZVujd-143" value="面向复杂户外环境的高保真NeRF建模" style="whiteSpace=wrap;strokeWidth=2;" vertex="1" parent="1">
          <mxGeometry x="1095" y="1300" width="260" height="78" as="geometry" />
        </mxCell>
        <mxCell id="-MWsqH_BpCoIPi6ZVujd-144" value="基于NeRF隐式景象表征的快速视图匹配" style="whiteSpace=wrap;strokeWidth=2;" vertex="1" parent="1">
          <mxGeometry x="1405" y="1300" width="260" height="78" as="geometry" />
        </mxCell>
        <mxCell id="-MWsqH_BpCoIPi6ZVujd-145" value="多用户视角追踪" style="whiteSpace=wrap;strokeWidth=2;" vertex="1" parent="1">
          <mxGeometry x="1715" y="1312" width="172" height="54" as="geometry" />
        </mxCell>
        <mxCell id="-MWsqH_BpCoIPi6ZVujd-146" value="多投影机图像校正" style="whiteSpace=wrap;strokeWidth=2;" vertex="1" parent="1">
          <mxGeometry x="1937" y="1312" width="188" height="54" as="geometry" />
        </mxCell>
        <mxCell id="-MWsqH_BpCoIPi6ZVujd-147" value="视点相关内容生成" style="whiteSpace=wrap;strokeWidth=2;" vertex="1" parent="1">
          <mxGeometry x="2175" y="1312" width="188" height="54" as="geometry" />
        </mxCell>
        <mxCell id="-MWsqH_BpCoIPi6ZVujd-148" value="提出线面特征约束的跨源点云粗配准策略" style="whiteSpace=wrap;strokeWidth=2;" vertex="1" parent="1">
          <mxGeometry x="985" y="45" width="260" height="78" as="geometry" />
        </mxCell>
        <mxCell id="-MWsqH_BpCoIPi6ZVujd-149" value="结合点线面的多特征精配准优化模型" style="whiteSpace=wrap;strokeWidth=2;" vertex="1" parent="1">
          <mxGeometry x="1771" y="173" width="260" height="78" as="geometry" />
        </mxCell>
        <mxCell id="-MWsqH_BpCoIPi6ZVujd-150" value="配准误差平移量&amp;lt;1m,旋转角度&amp;lt;1°" style="whiteSpace=wrap;strokeWidth=2;" vertex="1" parent="1">
          <mxGeometry x="1843" y="301" width="260" height="78" as="geometry" />
        </mxCell>
        <mxCell id="-MWsqH_BpCoIPi6ZVujd-151" value="整体配准速度满足末制导段实时处理需求" style="whiteSpace=wrap;strokeWidth=2;" vertex="1" parent="1">
          <mxGeometry x="1926" y="429" width="260" height="78" as="geometry" />
        </mxCell>
        <mxCell id="-MWsqH_BpCoIPi6ZVujd-152" value="将模型渲染精度PSNR提高到35dB以上" style="whiteSpace=wrap;strokeWidth=2;" vertex="1" parent="1">
          <mxGeometry x="2685" y="280" width="260" height="78" as="geometry" />
        </mxCell>
        <mxCell id="-MWsqH_BpCoIPi6ZVujd-153" value="优化模型训练和渲染速度,满足实时性要求" style="whiteSpace=wrap;strokeWidth=2;" vertex="1" parent="1">
          <mxGeometry x="2685" y="408" width="260" height="78" as="geometry" />
        </mxCell>
        <mxCell id="-MWsqH_BpCoIPi6ZVujd-154" value="实现多用户精确稳定追踪,追踪更新率&gt;10Hz" style="whiteSpace=wrap;strokeWidth=2;" vertex="1" parent="1">
          <mxGeometry x="3295" y="173" width="260" height="78" as="geometry" />
        </mxCell>
        <mxCell id="-MWsqH_BpCoIPi6ZVujd-155" value="支持异形投影表面几何校正和重叠区域无缝融合" style="whiteSpace=wrap;strokeWidth=2;" vertex="1" parent="1">
          <mxGeometry x="3295" y="301" width="260" height="78" as="geometry" />
        </mxCell>
        <mxCell id="-MWsqH_BpCoIPi6ZVujd-156" value="开发实时视点相关内容生成技术,响应时间&amp;lt;100ms" style="whiteSpace=wrap;strokeWidth=2;" vertex="1" parent="1">
          <mxGeometry x="3295" y="429" width="260" height="78" as="geometry" />
        </mxCell>
        <mxCell id="-MWsqH_BpCoIPi6ZVujd-157" value="" style="curved=1;startArrow=none;endArrow=block;exitX=1;exitY=0.56;entryX=0.5;entryY=0;rounded=0;" edge="1" parent="1" source="-MWsqH_BpCoIPi6ZVujd-127" target="-MWsqH_BpCoIPi6ZVujd-130">
          <mxGeometry relative="1" as="geometry">
            <Array as="points">
              <mxPoint x="2958" y="710" />
            </Array>
          </mxGeometry>
        </mxCell>
        <mxCell id="-MWsqH_BpCoIPi6ZVujd-158" value="" style="curved=1;startArrow=none;endArrow=block;exitX=1;exitY=0.56;entryX=0.33;entryY=0;rounded=0;" edge="1" parent="1" source="-MWsqH_BpCoIPi6ZVujd-127" target="-MWsqH_BpCoIPi6ZVujd-131">
          <mxGeometry relative="1" as="geometry">
            <Array as="points">
              <mxPoint x="2813" y="710" />
              <mxPoint x="2813" y="913" />
            </Array>
          </mxGeometry>
        </mxCell>
        <mxCell id="-MWsqH_BpCoIPi6ZVujd-159" value="" style="curved=1;startArrow=none;endArrow=block;exitX=1;exitY=0.57;entryX=0.31;entryY=0;rounded=0;" edge="1" parent="1" source="-MWsqH_BpCoIPi6ZVujd-127" target="-MWsqH_BpCoIPi6ZVujd-132">
          <mxGeometry relative="1" as="geometry">
            <Array as="points">
              <mxPoint x="2721" y="710" />
              <mxPoint x="2721" y="1041" />
            </Array>
          </mxGeometry>
        </mxCell>
        <mxCell id="-MWsqH_BpCoIPi6ZVujd-160" value="" style="curved=1;startArrow=none;endArrow=block;exitX=1;exitY=0.79;entryX=0.5;entryY=0;rounded=0;" edge="1" parent="1" source="-MWsqH_BpCoIPi6ZVujd-128" target="-MWsqH_BpCoIPi6ZVujd-133">
          <mxGeometry relative="1" as="geometry">
            <Array as="points">
              <mxPoint x="3371" y="710" />
            </Array>
          </mxGeometry>
        </mxCell>
        <mxCell id="-MWsqH_BpCoIPi6ZVujd-161" value="" style="curved=1;startArrow=none;endArrow=block;exitX=0.98;exitY=1;entryX=0.31;entryY=0;rounded=0;" edge="1" parent="1" source="-MWsqH_BpCoIPi6ZVujd-128" target="-MWsqH_BpCoIPi6ZVujd-134">
          <mxGeometry relative="1" as="geometry">
            <Array as="points">
              <mxPoint x="3206" y="710" />
              <mxPoint x="3206" y="913" />
            </Array>
          </mxGeometry>
        </mxCell>
        <mxCell id="-MWsqH_BpCoIPi6ZVujd-162" value="" style="curved=1;startArrow=none;endArrow=block;exitX=0.76;exitY=1;entryX=0.28;entryY=0;rounded=0;" edge="1" parent="1" source="-MWsqH_BpCoIPi6ZVujd-128" target="-MWsqH_BpCoIPi6ZVujd-135">
          <mxGeometry relative="1" as="geometry">
            <Array as="points">
              <mxPoint x="3113" y="710" />
              <mxPoint x="3113" y="1041" />
            </Array>
          </mxGeometry>
        </mxCell>
        <mxCell id="-MWsqH_BpCoIPi6ZVujd-163" value="" style="curved=1;startArrow=none;endArrow=block;exitX=1;exitY=0.83;entryX=0.5;entryY=0;rounded=0;" edge="1" parent="1" source="-MWsqH_BpCoIPi6ZVujd-129" target="-MWsqH_BpCoIPi6ZVujd-136">
          <mxGeometry relative="1" as="geometry">
            <Array as="points">
              <mxPoint x="3767" y="710" />
            </Array>
          </mxGeometry>
        </mxCell>
        <mxCell id="-MWsqH_BpCoIPi6ZVujd-164" value="" style="curved=1;startArrow=none;endArrow=block;exitX=1;exitY=1;entryX=0.37;entryY=0;rounded=0;" edge="1" parent="1" source="-MWsqH_BpCoIPi6ZVujd-129" target="-MWsqH_BpCoIPi6ZVujd-137">
          <mxGeometry relative="1" as="geometry">
            <Array as="points">
              <mxPoint x="3622" y="710" />
              <mxPoint x="3622" y="913" />
            </Array>
          </mxGeometry>
        </mxCell>
        <mxCell id="-MWsqH_BpCoIPi6ZVujd-165" value="" style="curved=1;startArrow=none;endArrow=block;exitX=0.85;exitY=1;entryX=0.34;entryY=0;rounded=0;" edge="1" parent="1" source="-MWsqH_BpCoIPi6ZVujd-129" target="-MWsqH_BpCoIPi6ZVujd-138">
          <mxGeometry relative="1" as="geometry">
            <Array as="points">
              <mxPoint x="3536" y="710" />
              <mxPoint x="3536" y="1041" />
            </Array>
          </mxGeometry>
        </mxCell>
        <mxCell id="-MWsqH_BpCoIPi6ZVujd-166" value="" style="curved=1;startArrow=none;endArrow=block;exitX=0;exitY=0.61;entryX=0.5;entryY=0;rounded=0;" edge="1" parent="1" source="-MWsqH_BpCoIPi6ZVujd-127" target="-MWsqH_BpCoIPi6ZVujd-139">
          <mxGeometry relative="1" as="geometry">
            <Array as="points">
              <mxPoint x="185" y="710" />
            </Array>
          </mxGeometry>
        </mxCell>
        <mxCell id="-MWsqH_BpCoIPi6ZVujd-167" value="" style="curved=1;startArrow=none;endArrow=block;exitX=0;exitY=0.67;entryX=0.5;entryY=0;rounded=0;" edge="1" parent="1" source="-MWsqH_BpCoIPi6ZVujd-127" target="-MWsqH_BpCoIPi6ZVujd-140">
          <mxGeometry relative="1" as="geometry">
            <Array as="points">
              <mxPoint x="495" y="710" />
            </Array>
          </mxGeometry>
        </mxCell>
        <mxCell id="-MWsqH_BpCoIPi6ZVujd-168" value="" style="curved=1;startArrow=none;endArrow=block;exitX=0;exitY=0.84;entryX=0.5;entryY=0;rounded=0;" edge="1" parent="1" source="-MWsqH_BpCoIPi6ZVujd-127" target="-MWsqH_BpCoIPi6ZVujd-141">
          <mxGeometry relative="1" as="geometry">
            <Array as="points">
              <mxPoint x="805" y="710" />
            </Array>
          </mxGeometry>
        </mxCell>
        <mxCell id="-MWsqH_BpCoIPi6ZVujd-169" value="" style="curved=1;startArrow=none;endArrow=block;exitX=0.5;exitY=1;entryX=0.5;entryY=0;rounded=0;" edge="1" parent="1" target="-MWsqH_BpCoIPi6ZVujd-142">
          <mxGeometry relative="1" as="geometry">
            <Array as="points" />
            <mxPoint x="915" y="1200" as="sourcePoint" />
          </mxGeometry>
        </mxCell>
        <mxCell id="-MWsqH_BpCoIPi6ZVujd-170" value="" style="curved=1;startArrow=none;endArrow=block;exitX=0;exitY=0.57;entryX=0.5;entryY=0;rounded=0;" edge="1" parent="1" source="-MWsqH_BpCoIPi6ZVujd-128" target="-MWsqH_BpCoIPi6ZVujd-143">
          <mxGeometry relative="1" as="geometry">
            <Array as="points">
              <mxPoint x="1425" y="710" />
            </Array>
          </mxGeometry>
        </mxCell>
        <mxCell id="-MWsqH_BpCoIPi6ZVujd-171" value="" style="curved=1;startArrow=none;endArrow=block;exitX=0;exitY=0.58;entryX=0.5;entryY=0;rounded=0;" edge="1" parent="1" source="-MWsqH_BpCoIPi6ZVujd-128" target="-MWsqH_BpCoIPi6ZVujd-144">
          <mxGeometry relative="1" as="geometry">
            <Array as="points">
              <mxPoint x="1735" y="710" />
            </Array>
          </mxGeometry>
        </mxCell>
        <mxCell id="-MWsqH_BpCoIPi6ZVujd-172" value="" style="curved=1;startArrow=none;endArrow=block;exitX=0;exitY=0.6;entryX=0.5;entryY=0;rounded=0;" edge="1" parent="1" source="-MWsqH_BpCoIPi6ZVujd-129" target="-MWsqH_BpCoIPi6ZVujd-145">
          <mxGeometry relative="1" as="geometry">
            <Array as="points">
              <mxPoint x="2001" y="710" />
            </Array>
          </mxGeometry>
        </mxCell>
        <mxCell id="-MWsqH_BpCoIPi6ZVujd-173" value="" style="curved=1;startArrow=none;endArrow=block;exitX=0;exitY=0.63;entryX=0.5;entryY=0;rounded=0;" edge="1" parent="1" source="-MWsqH_BpCoIPi6ZVujd-129" target="-MWsqH_BpCoIPi6ZVujd-146">
          <mxGeometry relative="1" as="geometry">
            <Array as="points">
              <mxPoint x="2231" y="710" />
            </Array>
          </mxGeometry>
        </mxCell>
        <mxCell id="-MWsqH_BpCoIPi6ZVujd-174" value="" style="curved=1;startArrow=none;endArrow=block;exitX=0;exitY=0.66;entryX=0.5;entryY=0;rounded=0;" edge="1" parent="1" source="-MWsqH_BpCoIPi6ZVujd-129" target="-MWsqH_BpCoIPi6ZVujd-147">
          <mxGeometry relative="1" as="geometry">
            <Array as="points">
              <mxPoint x="2469" y="710" />
            </Array>
          </mxGeometry>
        </mxCell>
        <mxCell id="-MWsqH_BpCoIPi6ZVujd-175" value="" style="curved=1;startArrow=none;endArrow=block;exitX=0.26;exitY=1;entryX=0.26;entryY=0;rounded=0;" edge="1" parent="1" source="-MWsqH_BpCoIPi6ZVujd-148" target="-MWsqH_BpCoIPi6ZVujd-127">
          <mxGeometry relative="1" as="geometry">
            <Array as="points">
              <mxPoint x="1013" y="148" />
              <mxPoint x="1013" y="582" />
            </Array>
          </mxGeometry>
        </mxCell>
        <mxCell id="-MWsqH_BpCoIPi6ZVujd-176" value="" style="curved=1;startArrow=none;endArrow=block;exitX=0.06;exitY=1;entryX=1;entryY=0.32;rounded=0;" edge="1" parent="1" source="-MWsqH_BpCoIPi6ZVujd-149" target="-MWsqH_BpCoIPi6ZVujd-127">
          <mxGeometry relative="1" as="geometry">
            <Array as="points">
              <mxPoint x="1716" y="276" />
              <mxPoint x="1716" y="582" />
            </Array>
          </mxGeometry>
        </mxCell>
        <mxCell id="-MWsqH_BpCoIPi6ZVujd-177" value="" style="curved=1;startArrow=none;endArrow=block;exitX=0.31;exitY=1;entryX=1;entryY=0.36;rounded=0;" edge="1" parent="1" source="-MWsqH_BpCoIPi6ZVujd-150" target="-MWsqH_BpCoIPi6ZVujd-127">
          <mxGeometry relative="1" as="geometry">
            <Array as="points">
              <mxPoint x="1891" y="404" />
              <mxPoint x="1891" y="582" />
            </Array>
          </mxGeometry>
        </mxCell>
        <mxCell id="-MWsqH_BpCoIPi6ZVujd-178" value="" style="curved=1;startArrow=none;endArrow=block;exitX=0.5;exitY=1;entryX=1;entryY=0.39;rounded=0;" edge="1" parent="1" source="-MWsqH_BpCoIPi6ZVujd-151" target="-MWsqH_BpCoIPi6ZVujd-127">
          <mxGeometry relative="1" as="geometry">
            <Array as="points">
              <mxPoint x="2056" y="582" />
            </Array>
          </mxGeometry>
        </mxCell>
        <mxCell id="-MWsqH_BpCoIPi6ZVujd-179" value="" style="curved=1;startArrow=none;endArrow=block;exitX=0;exitY=0.64;entryX=0;entryY=0.36;rounded=0;" edge="1" parent="1" source="-MWsqH_BpCoIPi6ZVujd-152" target="-MWsqH_BpCoIPi6ZVujd-128">
          <mxGeometry relative="1" as="geometry">
            <Array as="points">
              <mxPoint x="2221" y="404" />
              <mxPoint x="2221" y="582" />
            </Array>
          </mxGeometry>
        </mxCell>
        <mxCell id="-MWsqH_BpCoIPi6ZVujd-180" value="" style="curved=1;startArrow=none;endArrow=block;exitX=0.5;exitY=1;entryX=0.5;entryY=0;rounded=0;" edge="1" parent="1" source="-MWsqH_BpCoIPi6ZVujd-153" target="-MWsqH_BpCoIPi6ZVujd-128">
          <mxGeometry relative="1" as="geometry">
            <Array as="points" />
          </mxGeometry>
        </mxCell>
        <mxCell id="-MWsqH_BpCoIPi6ZVujd-181" value="" style="curved=1;startArrow=none;endArrow=block;exitX=0;exitY=0.91;entryX=0.19;entryY=0;rounded=0;" edge="1" parent="1" source="-MWsqH_BpCoIPi6ZVujd-154" target="-MWsqH_BpCoIPi6ZVujd-129">
          <mxGeometry relative="1" as="geometry">
            <Array as="points">
              <mxPoint x="3167" y="276" />
              <mxPoint x="3167" y="582" />
            </Array>
          </mxGeometry>
        </mxCell>
        <mxCell id="-MWsqH_BpCoIPi6ZVujd-182" value="" style="curved=1;startArrow=none;endArrow=block;exitX=0.11;exitY=1;entryX=0.35;entryY=0;rounded=0;" edge="1" parent="1" source="-MWsqH_BpCoIPi6ZVujd-155" target="-MWsqH_BpCoIPi6ZVujd-129">
          <mxGeometry relative="1" as="geometry">
            <Array as="points">
              <mxPoint x="3260" y="404" />
              <mxPoint x="3260" y="582" />
            </Array>
          </mxGeometry>
        </mxCell>
        <mxCell id="-MWsqH_BpCoIPi6ZVujd-183" value="" style="curved=1;startArrow=none;endArrow=block;exitX=0.5;exitY=1;entryX=0.65;entryY=0;rounded=0;" edge="1" parent="1" source="-MWsqH_BpCoIPi6ZVujd-156" target="-MWsqH_BpCoIPi6ZVujd-129">
          <mxGeometry relative="1" as="geometry">
            <Array as="points">
              <mxPoint x="3425" y="582" />
            </Array>
          </mxGeometry>
        </mxCell>
        <mxCell id="-MWsqH_BpCoIPi6ZVujd-184" value="" style="curved=1;startArrow=none;endArrow=none;exitX=0.5;exitY=1;entryX=0.67;entryY=0;rounded=0;" edge="1" visible="0" parent="1" source="-MWsqH_BpCoIPi6ZVujd-130" target="-MWsqH_BpCoIPi6ZVujd-131">
          <mxGeometry relative="1" as="geometry">
            <Array as="points">
              <mxPoint x="2958" y="913" />
            </Array>
          </mxGeometry>
        </mxCell>
        <mxCell id="-MWsqH_BpCoIPi6ZVujd-185" value="" style="curved=1;startArrow=none;endArrow=none;exitX=0.5;exitY=1;entryX=0.69;entryY=0;rounded=0;" edge="1" visible="0" parent="1" source="-MWsqH_BpCoIPi6ZVujd-131" target="-MWsqH_BpCoIPi6ZVujd-132">
          <mxGeometry relative="1" as="geometry">
            <Array as="points">
              <mxPoint x="2886" y="1041" />
            </Array>
          </mxGeometry>
        </mxCell>
        <mxCell id="-MWsqH_BpCoIPi6ZVujd-186" value="" style="curved=1;startArrow=none;endArrow=none;exitX=0.5;exitY=1;entryX=0.69;entryY=0;rounded=0;" edge="1" visible="0" parent="1" source="-MWsqH_BpCoIPi6ZVujd-133" target="-MWsqH_BpCoIPi6ZVujd-134">
          <mxGeometry relative="1" as="geometry">
            <Array as="points">
              <mxPoint x="3371" y="913" />
            </Array>
          </mxGeometry>
        </mxCell>
        <mxCell id="-MWsqH_BpCoIPi6ZVujd-187" value="" style="curved=1;startArrow=none;endArrow=none;exitX=0.5;exitY=1;entryX=0.69;entryY=0;rounded=0;" edge="1" visible="0" parent="1" source="-MWsqH_BpCoIPi6ZVujd-134" target="-MWsqH_BpCoIPi6ZVujd-135">
          <mxGeometry relative="1" as="geometry">
            <Array as="points">
              <mxPoint x="3288" y="1041" />
            </Array>
          </mxGeometry>
        </mxCell>
        <mxCell id="-MWsqH_BpCoIPi6ZVujd-188" value="" style="curved=1;startArrow=none;endArrow=none;exitX=0.5;exitY=1;entryX=0.63;entryY=0;rounded=0;" edge="1" visible="0" parent="1" source="-MWsqH_BpCoIPi6ZVujd-136" target="-MWsqH_BpCoIPi6ZVujd-137">
          <mxGeometry relative="1" as="geometry">
            <Array as="points">
              <mxPoint x="3767" y="913" />
            </Array>
          </mxGeometry>
        </mxCell>
        <mxCell id="-MWsqH_BpCoIPi6ZVujd-189" value="" style="curved=1;startArrow=none;endArrow=none;exitX=0.5;exitY=1;entryX=0.65;entryY=0;rounded=0;" edge="1" visible="0" parent="1" source="-MWsqH_BpCoIPi6ZVujd-137" target="-MWsqH_BpCoIPi6ZVujd-138">
          <mxGeometry relative="1" as="geometry">
            <Array as="points">
              <mxPoint x="3695" y="1041" />
            </Array>
          </mxGeometry>
        </mxCell>
        <mxCell id="-MWsqH_BpCoIPi6ZVujd-190" value="" style="curved=1;dashed=1;dashPattern=2 3;startArrow=none;endArrow=block;exitX=1;exitY=0.64;entryX=0.5;entryY=0;rounded=0;" edge="1" parent="1" source="-MWsqH_BpCoIPi6ZVujd-148" target="-MWsqH_BpCoIPi6ZVujd-149">
          <mxGeometry relative="1" as="geometry">
            <Array as="points">
              <mxPoint x="1901" y="148" />
            </Array>
          </mxGeometry>
        </mxCell>
        <mxCell id="-MWsqH_BpCoIPi6ZVujd-191" value="" style="curved=1;dashed=1;dashPattern=2 3;startArrow=none;endArrow=block;exitX=0.67;exitY=1;entryX=0.5;entryY=0;rounded=0;" edge="1" parent="1" source="-MWsqH_BpCoIPi6ZVujd-149" target="-MWsqH_BpCoIPi6ZVujd-150">
          <mxGeometry relative="1" as="geometry">
            <Array as="points">
              <mxPoint x="1973" y="276" />
            </Array>
          </mxGeometry>
        </mxCell>
        <mxCell id="-MWsqH_BpCoIPi6ZVujd-192" value="" style="curved=1;dashed=1;dashPattern=2 3;startArrow=none;endArrow=block;exitX=0.69;exitY=1;entryX=0.5;entryY=0;rounded=0;" edge="1" parent="1" source="-MWsqH_BpCoIPi6ZVujd-150" target="-MWsqH_BpCoIPi6ZVujd-151">
          <mxGeometry relative="1" as="geometry">
            <Array as="points">
              <mxPoint x="2056" y="404" />
            </Array>
          </mxGeometry>
        </mxCell>
        <mxCell id="-MWsqH_BpCoIPi6ZVujd-193" value="" style="curved=1;dashed=1;dashPattern=2 3;startArrow=none;endArrow=block;exitX=0.5;exitY=1;entryX=0.5;entryY=0;rounded=0;" edge="1" parent="1" source="-MWsqH_BpCoIPi6ZVujd-152" target="-MWsqH_BpCoIPi6ZVujd-153">
          <mxGeometry relative="1" as="geometry">
            <Array as="points" />
          </mxGeometry>
        </mxCell>
        <mxCell id="-MWsqH_BpCoIPi6ZVujd-194" value="" style="curved=1;dashed=1;dashPattern=2 3;startArrow=none;endArrow=block;exitX=0.5;exitY=1;entryX=0.5;entryY=0;rounded=0;" edge="1" parent="1" source="-MWsqH_BpCoIPi6ZVujd-154" target="-MWsqH_BpCoIPi6ZVujd-155">
          <mxGeometry relative="1" as="geometry">
            <Array as="points" />
          </mxGeometry>
        </mxCell>
        <mxCell id="-MWsqH_BpCoIPi6ZVujd-195" value="" style="curved=1;dashed=1;dashPattern=2 3;startArrow=none;endArrow=block;exitX=0.5;exitY=1;entryX=0.5;entryY=0;rounded=0;" edge="1" parent="1" source="-MWsqH_BpCoIPi6ZVujd-155" target="-MWsqH_BpCoIPi6ZVujd-156">
          <mxGeometry relative="1" as="geometry">
            <Array as="points" />
          </mxGeometry>
        </mxCell>
      </root>
    </mxGraphModel>
  </diagram>
</mxfile>
